<svg width="176" height="134" viewBox="0 0 176 134" fill="none" xmlns="http://www.w3.org/2000/svg">
<path d="M176 57.3692C176 99.5938 136.601 133.824 88 133.824C39.3989 133.824 0 99.5938 0 57.3692C0 15.1446 39.3989 57.3692 88 57.3692C136.601 57.3692 176 12.4652 176 57.3692Z" fill="#1B4332"/>
<path d="M155.664 15.8937C145.175 31.2831 122.608 48 81.8318 48C41.0556 48 8.00001 33.4834 8 15.8937C7.99999 -1.69609 48.4137 -0.895011 81.8318 15.8937C115.25 32.6823 160.341 9.03094 155.664 15.8937Z" fill="#C19A6B"/>
<path d="M103.101 3.95879C106.26 8.7718 113.058 14 125.341 14C137.624 14 150.5 7.59216 147.582 3.95879C144.663 0.32542 135.32 -2.7457 125.341 3.95879C115.363 10.6633 101.692 1.81249 103.101 3.95879Z" fill="#C19A6B"/>
</svg>
