<svg width="35" height="40" viewBox="0 0 35 40" fill="none" xmlns="http://www.w3.org/2000/svg">
<path d="M11 12C11 6.47715 13.6863 2 17 2C20.3137 2 23 6.47715 23 12" stroke="#5F4841" stroke-width="4" stroke-linecap="round" stroke-linejoin="round"/>
<path d="M29.7084 12H5.29162C4.32168 12 3.4939 12.8246 3.33445 13.9497L0.0274879 37.2831C-0.174082 38.7053 0.758564 40 1.98466 40H33.0153C34.2414 40 35.1741 38.7053 34.9725 37.2831L31.6656 13.9497C31.5061 12.8246 30.6783 12 29.7084 12Z" fill="#5F4841"/>
<ellipse cx="17" cy="25" rx="15" ry="9" fill="#E9D9BD"/>
<path d="M32 25C32 29.4183 26.3888 33 17 33C7.61116 33 2 29.4183 2 25C2 20.5817 7.61116 17 17 17C26.3888 17 32 20.5817 32 25Z" fill="#FEF0D3"/>
<path d="M8.22504 26.2734C10.7178 28.0926 21.2957 25.6365 24.986 26.1083C28.6763 26.5802 29.8044 27.1912 25.3124 24.6561C20.8204 22.1209 13.2949 25.8872 8.55143 24.8212C3.80793 23.7551 5.73234 24.4543 8.22504 26.2734Z" fill="#5F4841"/>
</svg>
